<?xml version="1.0" encoding="utf-8"?>
<!-- Generator: Adobe Illustrator 28.0.0, SVG Export Plug-In . SVG Version: 6.00 Build 0)  -->
<svg version="1.1" id="Layer_1" xmlns="http://www.w3.org/2000/svg" xmlns:xlink="http://www.w3.org/1999/xlink" x="0px" y="0px"
	 viewBox="0 0 812.9 1000" style="enable-background:new 0 0 812.9 1000;" xml:space="preserve">
<style type="text/css">
	.st0{fill:#CA8D16;}
	.st1{fill:url(#SVGID_1_);}
	.st2{fill:url(#SVGID_00000017510446021083778990000014395930996930419609_);}
	.st3{fill:url(#SVGID_00000145037351553641122870000015475895638929485746_);}
	.st4{fill:url(#SVGID_00000067922957072969066160000004499177722165603465_);}
	.st5{fill:url(#SVGID_00000074425338590576759800000000067395624669270660_);}
	.st6{fill:url(#SVGID_00000053540651766888013500000008147568366074733701_);}
	.st7{fill:url(#SVGID_00000010283426273694446440000010142094943905266851_);}
	.st8{fill:url(#SVGID_00000026845273729947013200000002352157937650461319_);}
	.st9{fill:url(#SVGID_00000072246494817502636150000001388345443578800001_);}
	.st10{fill:url(#SVGID_00000160171442023667469370000002202234928683735709_);}
	.st11{fill:url(#SVGID_00000016783618859995408970000010745740960897937566_);}
	.st12{fill:url(#SVGID_00000045593644717181214530000002864853274508075141_);}
	.st13{fill:#229B59;}
</style>
<g>
	<g>
		<g>
			<path class="st0" d="M474.9,369.5c-0.8-0.2-10.2-28.5-10.7-19.8c-0.1,2.5-2,9.3-0.5,11.6c4.9,10.5,16.7,35.5,17.5,39.6
				C487.9,414.6,482.5,383.4,474.9,369.5z"/>
			<path class="st0" d="M496.3,430.3c0.2,0.9-2.8,8.2-0.7,8.2c5.1,0.2,6.6,2.4,8.3,0.5l1.3-7.3C504.7,429.3,497.8,428.4,496.3,430.3
				z M505.9,381.1c0.2,11.8,0.2,6.7,7.1,13.3c-5.7,11.1-58.2,38.7-54.3,13c-2.3-9.1-7.3,16.1,2.4,18.6c15.4,8.6,46-10.5,55-24.2
				C520.8,396.6,510.7,376.3,505.9,381.1z"/>
			<path class="st0" d="M535.4,419.5c-1.4-4.4-5.1-14.4-8.4-11.2c-6.1,17.2,1.9,11.3,5.4,23.2c-3.5,8.9-21,21.5-32.5,16.6
				c-7.3,1.3,7.3,6,11.3,8.1C528.8,458.3,540.8,434.9,535.4,419.5z"/>
			<path class="st0" d="M483.8,508.3c-21.1-1.1-20.9-27.9-9.2-40.8c5.1-7.3,10.8-10.1,13.8-15.6c3.2-16-3-6.9-11,1.8
				c-5,5.3-12,4.1-18.2,1.8c4.1-13.2,21.3-10.4,16.9-14.3c-16.4-15.2-32.1,25.9-8.9,26.1c-18.2,49.2,26.5,70.8,58.6,33.9
				C536,490.2,496.2,512.6,483.8,508.3z"/>
			<path class="st0" d="M541,445.2c-6.7,14.1,2.8,23.7,11.9,14.4c3.9,7-16,20.5-21,22.1c-6.4,2.6-12.6-0.3-16.4,2.1
				c0.8,3.6,6.4,2.9,11.3,4.6c11.3,2.1,13.4,2.4,21.8-7.2C568.1,463.2,555.9,412.2,541,445.2z M544.3,449.6c2.2-2.9,4.3-2.7,6.3,0.4
				C548.1,451.6,546,451.5,544.3,449.6z"/>
			<path class="st0" d="M505.9,477.9c-0.3-1.5-1.3-3.1-2.7-4.9c-1.5-1.7-3.3-3.5-5.4-5.4c-2.1-1.8-3.3-2.9-3.7-3.3l-0.6,0.2
				c-0.5,2.1-0.7,3.6-0.8,4.4c-2,1.8-3.6,3.5-4.8,5.3c-2,3-3.1,5.8-3.3,8.3c-0.3,4.6,1,8,3.9,10.2c1.3,1,3,1.5,5.2,1.7
				c3.6,0.3,6.7-0.9,9.5-3.4c0.7-0.8,1.4-2,2-3.6c0.6-1.6,0.9-3.1,1-4.5C506.4,481.1,506.2,479.5,505.9,477.9z M501.5,486.7
				c-2.3,1.4-4.7,2.1-7.1,1.9c-1.9-0.1-3.6-0.8-5-2.1c-1.4-1.3-2.1-2.7-2-4.4c0.2-3,2.7-6.2,7.4-9.5c3,2,5.2,4.1,6.7,6.3
				c1.4,2.1,2.1,3.8,2,5C503.6,484.9,502.9,485.9,501.5,486.7z"/>
		</g>
		<g>
			<path class="st0" d="M340.7,383.2c-1.4,1.3-3.2,3.2-5.4,5.5c3.3,3.4,5.4,5.6,6.4,6.7c2-1.4,3.9-3.2,5.5-5.3
				C345.1,387.5,342.9,385.1,340.7,383.2z M347.7,412.5l-3.4-8.4l-0.3-0.1c-1.5,2-3.2,4.4-4.9,7c2.3,4.3,4.2,8.8,5.9,13.6
				c0.4,1.6,0.6,2.7,0.5,3.2c-0.1,0.8-0.4,1.7-0.9,2.5c-2.4,4.3-5.7,7.8-9.9,10.5c-4.1,2.7-8.3,3.9-12.3,3.5
				c-2.2-0.2-4.3-0.8-6.5-1.7l-0.8,1.9c5.7,3.6,10.6,5.6,14.7,6c3.1,0.3,6.5-1.2,10.2-4.4c5.5-5.5,8.5-10.7,9-15.7l0.6-6.5
				C349.9,420.3,349.3,416.4,347.7,412.5z"/>
			<path class="st0" d="M307.2,387.9c-1.7,0.9-3.9,2.2-6.6,3.9c2.3,4.1,3.7,6.9,4.4,8.2c2.4-0.8,4.6-2.1,6.7-3.7
				C310.3,393.2,308.8,390.4,307.2,387.9z M283.9,440.6c2.5-1.5,5.5-2.6,9-3.3c5.5-1,12.9-1.5,22.2-1.6l4.9-6.5l-0.2-0.3
				c-5.5,0-11.3,0.2-17.4,0.7c-1.7,0.1-2.8,0.1-3.4-0.2c-1.1-0.4-2.7-2.2-4.7-5.2c-1.2-1.9-2-3.6-2.3-5c-0.3-1.4-0.3-2.7,0.2-3.9
				c0.5-1.2,2-2,4.7-2.3c2.7-0.3,5.5,0.1,8.4,1.2c3.1,1.2,5.7,2.9,7.9,5.1l1.3-0.8c-1.7-6-4.8-9.8-9.3-11.5c-2-0.8-4.1-0.9-6.4-0.5
				c-2.2,0.4-4.3,1.5-6.4,3c-2.7,2.2-4.6,4.7-5.7,7.5c-0.9,2.4-1.1,4.6-0.5,6.9c0.6,2.2,2,5,4.2,8.4c-8.2,3-13.5,7.8-16,14.4
				c-1.3,3.5-1.8,6.8-1.5,10c0.3,3.2,1.3,6,2.9,8.5c1.7,2.5,3.8,4.8,6.4,6.7c2.7,1.9,5.7,3.6,9.1,4.9c4.4,1.7,7.8,2.3,10.1,2
				c3.3-0.5,7.2-1.4,11.7-2.7v-1.1c-4.6-0.5-9.5-1.8-14.7-3.8c-7.5-2.9-13.1-6.6-16.6-11.3c-3.6-4.7-4.5-9.3-2.7-14
				C279.7,443.9,281.4,442.1,283.9,440.6z"/>
			<path class="st0" d="M329.7,456.3c-1.3,1.4-3,3.3-5.1,5.8c3.4,3.2,5.6,5.4,6.7,6.5c2-1.5,3.7-3.4,5.2-5.6
				C334.2,460.4,332,458.1,329.7,456.3z M344.3,487.6c-2.5-8-6.1-12.1-10.7-12.3c-2.5-0.1-5.1,1.1-7.8,3.6c-3.1,2.9-4.8,6.7-5,11.4
				c-0.1,1.4,0.1,2.9,0.7,4.3c1.7,4.4,6.4,6.7,13.9,7.1c2.9,0.2,5,0.2,6.5,0.1c0.2,0.5,0.2,0.9,0.2,1.3c0,0.7-1.4,1.6-4.2,2.6
				c-2.5,0.9-5.1,1.7-8,2.2c-7.2,1.4-14,1.9-20.3,1.6c-8.3-0.4-14.5-2-18.6-4.8c-2.3-1.6-4.1-3.5-5.4-5.9c-1.3-2.4-1.8-4.9-1.7-7.6
				c0.1-2.6,0.9-5.5,2.2-8.9l-2.3-1.1c-2.5,4.3-4,9-4.2,14.1c-0.4,7,2.3,12.5,7.9,16.5c4.6,3.3,11.3,5.1,20.1,5.6
				c6.4,0.3,14.1-0.5,23.1-2.5c1.8-0.4,3.3-0.8,4.3-1c1-0.3,2.3-0.7,3.9-1.3c1.6-0.6,3.1-1.3,4.6-2.2c1.8-1.9,2.7-4.7,2.9-8.6
				C346.3,496.8,345.7,492.1,344.3,487.6z M324.5,487.9c0.1-1.2,0.8-2.3,2.3-3.4c1.5-1.1,3.2-1.6,5-1.5c2.3,0.1,4.3,1.4,6,3.8
				c1.7,2.4,2.8,5.1,3.3,8.2C329.9,494.5,324.3,492.2,324.5,487.9z"/>
			<path class="st0" d="M355.3,365.4c-1.4-5-3.5-9.4-6.5-13.2c-1.7-2.1-4-3.5-6.8-4.1c-1.8-0.4-3.8,0-5.9,1.2
				c-1,0.6-1.9,1.5-2.9,2.7c-0.9,1.2-1.6,2.4-1.8,3.6c-0.4,1.9-0.6,4.4-0.7,7.7c-2.4,1-4.7,3.1-6.8,6.4c-1.5,2.3-2.6,4.8-3.1,7.3
				c-0.4,1.9-0.5,4.2-0.3,6.9c0.2,2.3,0.5,5.4,1,9.3c0.4,3.9,0.8,7,1,9.3c0.2,2.3,0.4,4.8,0.4,7.4c0.1,2.7-0.1,4.8-0.4,6.4l1.3,0.5
				c1.7-3.4,2.7-6.1,3.2-8.2c0.3-1.7,0.5-3.4,0.4-5.3c-0.1-2.9-0.4-6.8-0.8-11.7c-0.4-5-0.7-9-0.8-11.9c-0.1-3,0-5.4,0.4-7.2
				c0.2-1,1.3-1.7,3.2-2.3c1.9-0.6,4.3-0.6,7.2,0.1c4,0.8,9.1,2.5,15.5,4.9c1.8-2.2,2.9-4.1,3.3-5.7
				C355.6,367.9,355.6,366.6,355.3,365.4z M349.2,366.6c-3.2-1.5-6.2-2.5-8.8-3.1c-3.2-0.7-5.9-0.9-8.1-0.6c0.9-1.5,1.8-3.2,2.6-5.3
				l0.4-3c1.3-0.2,2.5-0.1,3.7,0.1c2.5,0.5,4.5,1.7,6,3.6c1.5,1.9,3,4.5,4.5,7.7L349.2,366.6z"/>
			<path class="st0" d="M274.8,482.6c-4.8,0.8-9.2,1.3-13.3,1.3c-3.7,0-7.1-1.1-10.2-3.2c-2-1.4-3-3-3-5c0-0.9,0.7-1.9,2.2-2.8
				c2.2-1.5,4.4-2.2,6.8-2.2c1.7,0,3.1,0.6,4.2,1.9c0.9,1.2,1.7,2.6,2.3,4.4h0.5c2.4-2.3,3.6-4.7,3.6-7.3c0-1.8-0.7-3.3-2.2-4.4
				c-1.5-1.2-3.3-1.7-5.4-1.7c-2.1,0-4.4,0.5-6.9,1.6c-2.5,1.1-4.7,2.5-6.6,4.3c-3.5,3.3-5.3,6.9-5.3,10.8c0,4.3,2.9,7.5,8.7,9.5
				v0.4c-1.3,0.5-2.8,1.5-4.5,3.2l-3.5,5.8l0.8,0.8c7.8-4.6,17.3-7.6,28.4-8.9l3.9-7.8L274.8,482.6z"/>
		</g>
	</g>
	<g>
		<g>
			<g>
				<linearGradient id="SVGID_1_" gradientUnits="userSpaceOnUse" x1="433.9369" y1="55.7719" x2="637.8128" y2="220.0002">
					<stop  offset="8.362190e-02" style="stop-color:#005523"/>
					<stop  offset="0.7194" style="stop-color:#3CB882"/>
				</linearGradient>
				<path class="st1" d="M683.5,45.3c-31.6,11.8-61.4,23-92.7,34.7c7,8.5,13.4,16.4,20.7,25.3c-28.2,10.6-55.2,21.3-82.7,30.9
					c-8.6,3-9.1,5.1-3.4,12.1c14.5,17.9,14.1,18.2-3.9,33.3c-31.7,26.5-63.4,53.1-95.2,79.7C375.3,126.6,545.4-27.8,683.5,45.3z"/>
				
					<linearGradient id="SVGID_00000181061936158575306670000007093302504761709188_" gradientUnits="userSpaceOnUse" x1="624.4693" y1="55.7719" x2="828.3453" y2="220.0002" gradientTransform="matrix(-1 0 0 1 1003.3295 0)">
					<stop  offset="8.362190e-02" style="stop-color:#005523"/>
					<stop  offset="0.7194" style="stop-color:#3CB882"/>
				</linearGradient>
				<path style="fill:url(#SVGID_00000181061936158575306670000007093302504761709188_);" d="M129.3,45.3
					c31.6,11.8,61.4,23,92.7,34.7c-7,8.5-13.4,16.4-20.7,25.3c28.2,10.6,55.2,21.3,82.7,30.9c8.6,3,9.1,5.1,3.4,12.1
					c-14.5,17.9-14.1,18.2,3.9,33.3c31.7,26.5,63.4,53.1,95.2,79.7C437.5,126.6,267.4-27.8,129.3,45.3z"/>
			</g>
			<g>
				
					<linearGradient id="SVGID_00000068644652833563291120000000731604623259378601_" gradientUnits="userSpaceOnUse" x1="79.4775" y1="299.3896" x2="263.8913" y2="483.8033">
					<stop  offset="0.1482" style="stop-color:#005523"/>
					<stop  offset="0.7889" style="stop-color:#3CB882"/>
				</linearGradient>
				<path style="fill:url(#SVGID_00000068644652833563291120000000731604623259378601_);" d="M347.9,331
					c-36.5,30.6-72.3,60.3-107.7,90.5c-12.9,11.7-19.2-12.2-29.2-19.3c-14.8,25-29.9,49-43.4,73.8c-10.5,20.6-17.9-6-28.1-13.8
					c-16.9,28.4-33.2,55.8-50,84C41.1,407.9,211.1,258.8,347.9,331z"/>
				
					<linearGradient id="SVGID_00000088847768515520228840000011963430122624050067_" gradientUnits="userSpaceOnUse" x1="311.9969" y1="299.3896" x2="496.4107" y2="483.8033" gradientTransform="matrix(-1 0 0 1 1045.3164 0)">
					<stop  offset="0.1482" style="stop-color:#005523"/>
					<stop  offset="0.7889" style="stop-color:#3CB882"/>
				</linearGradient>
				<path style="fill:url(#SVGID_00000088847768515520228840000011963430122624050067_);" d="M464.9,331
					c36.5,30.6,72.3,60.3,107.7,90.5c12.9,11.7,19.2-12.2,29.2-19.3c14.8,25,29.9,49,43.4,73.8c10.5,20.6,17.9-6,28.1-13.8
					c16.9,28.4,33.2,55.8,50,84C771.7,407.9,601.7,258.8,464.9,331z"/>
			</g>
			<g>
				
					<linearGradient id="SVGID_00000172416357842382449770000017080160135400514735_" gradientUnits="userSpaceOnUse" x1="186.1092" y1="376.9102" x2="186.1092" y2="49.6294">
					<stop  offset="0.1065" style="stop-color:#3CB882"/>
					<stop  offset="0.8575" style="stop-color:#005523"/>
				</linearGradient>
				<path style="fill:url(#SVGID_00000172416357842382449770000017080160135400514735_);" d="M353.5,290.1
					c-47.5,0-93.6-0.3-139.7,0.2c-17.4,0.3-7-20.6-9.7-33.1c-31.6,11-61.9,21.6-93.3,32.5c-2.2-16.3,8.3-39.3-16.5-27.3
					c-25.2,9-50.3,18-75.6,27C65,154.8,299.2,146.3,353.5,290.1z"/>
				
					<linearGradient id="SVGID_00000007414511052682564750000014245356402744984506_" gradientUnits="userSpaceOnUse" x1="444.2725" y1="376.9102" x2="444.2725" y2="49.6294" gradientTransform="matrix(-1 0 0 1 1070.9603 0)">
					<stop  offset="0.1065" style="stop-color:#3CB882"/>
					<stop  offset="0.8575" style="stop-color:#005523"/>
				</linearGradient>
				<path style="fill:url(#SVGID_00000007414511052682564750000014245356402744984506_);" d="M459.3,290.1
					c47.5,0,93.6-0.3,139.7,0.2c17.4,0.3,7-20.6,9.7-33.1c31.6,11,61.9,21.6,93.3,32.5c2.2-16.3-8.3-39.3,16.5-27.3
					c25.2,9,50.3,18,75.6,27C747.8,154.8,513.6,146.3,459.3,290.1z"/>
			</g>
		</g>
		<g>
			
				<linearGradient id="SVGID_00000149366932172517258990000004630666083343000239_" gradientUnits="userSpaceOnUse" x1="406.3985" y1="526.1799" x2="406.3985" y2="451.7949">
				<stop  offset="0" style="stop-color:#3CA782"/>
				<stop  offset="0.1881" style="stop-color:#35A177"/>
				<stop  offset="0.5222" style="stop-color:#229158"/>
				<stop  offset="0.9607" style="stop-color:#037728"/>
				<stop  offset="1" style="stop-color:#007523"/>
			</linearGradient>
			<path style="fill:url(#SVGID_00000149366932172517258990000004630666083343000239_);" d="M442.5,451.8h-72.1
				c-3.9,0-7.1,3.1-7.2,7.1l-1,60c-0.1,4,3.2,7.3,7.2,7.3h74.1c4,0,7.2-3.3,7.2-7.3l-1-60C449.6,454.9,446.4,451.8,442.5,451.8z"/>
			
				<linearGradient id="SVGID_00000178927085867536236780000016640564674055099553_" gradientUnits="userSpaceOnUse" x1="406.3985" y1="444.9138" x2="406.3985" y2="370.5288">
				<stop  offset="0" style="stop-color:#3CA782"/>
				<stop  offset="0.1881" style="stop-color:#35A177"/>
				<stop  offset="0.5222" style="stop-color:#229158"/>
				<stop  offset="0.9607" style="stop-color:#037728"/>
				<stop  offset="1" style="stop-color:#007523"/>
			</linearGradient>
			<path style="fill:url(#SVGID_00000178927085867536236780000016640564674055099553_);" d="M441.1,370.5h-69.4
				c-3.9,0-7.1,3.1-7.2,7.1l-1,60c-0.1,4,3.2,7.3,7.2,7.3h71.4c4,0,7.2-3.3,7.2-7.3l-1-60C448.2,373.7,445,370.5,441.1,370.5z"/>
			
				<linearGradient id="SVGID_00000146484576495774549910000015437083723812187039_" gradientUnits="userSpaceOnUse" x1="406.3985" y1="379.7672" x2="406.3985" y2="294.1411">
				<stop  offset="0" style="stop-color:#3CA782"/>
				<stop  offset="0.1881" style="stop-color:#35A177"/>
				<stop  offset="0.5222" style="stop-color:#229158"/>
				<stop  offset="0.9607" style="stop-color:#037728"/>
				<stop  offset="1" style="stop-color:#007523"/>
			</linearGradient>
			<path style="fill:url(#SVGID_00000146484576495774549910000015437083723812187039_);" d="M439.8,289.2H373
				c-3.9,0-7.1,3.1-7.2,7.1l-1,60.1c-0.1,4,3.2,7.3,7.2,7.3h68.7c4,0,7.2-3.3,7.2-7.3l-1-60.1C446.9,292.3,443.7,289.2,439.8,289.2z
				"/>
			
				<linearGradient id="SVGID_00000134967346339725314320000007025222889553080253_" gradientUnits="userSpaceOnUse" x1="406.3985" y1="688.7121" x2="406.3985" y2="614.3273">
				<stop  offset="0" style="stop-color:#3CA782"/>
				<stop  offset="0.1881" style="stop-color:#35A177"/>
				<stop  offset="0.5222" style="stop-color:#229158"/>
				<stop  offset="0.9607" style="stop-color:#037728"/>
				<stop  offset="1" style="stop-color:#007523"/>
			</linearGradient>
			<path style="fill:url(#SVGID_00000134967346339725314320000007025222889553080253_);" d="M360.5,621.4l-1,60
				c-0.1,4,3.2,7.3,7.2,7.3h79.5c4,0,7.2-3.3,7.2-7.3l-1-60c-0.1-3.9-3.3-7.1-7.2-7.1h-77.5C363.7,614.3,360.5,617.5,360.5,621.4z"
				/>
			
				<linearGradient id="SVGID_00000107588318080339328810000014164629185862507944_" gradientUnits="userSpaceOnUse" x1="406.3985" y1="607.446" x2="406.3985" y2="533.061">
				<stop  offset="0" style="stop-color:#3CA782"/>
				<stop  offset="0.1881" style="stop-color:#35A177"/>
				<stop  offset="0.5222" style="stop-color:#229158"/>
				<stop  offset="0.9607" style="stop-color:#037728"/>
				<stop  offset="1" style="stop-color:#007523"/>
			</linearGradient>
			<path style="fill:url(#SVGID_00000107588318080339328810000014164629185862507944_);" d="M443.8,533.1H369
				c-3.9,0-7.1,3.1-7.2,7.1l-1,60c-0.1,4,3.2,7.3,7.2,7.3h76.8c4,0,7.2-3.3,7.2-7.3l-1-60C450.9,536.2,447.7,533.1,443.8,533.1z"/>
			
				<linearGradient id="SVGID_00000062876279643631131790000006054329947451320997_" gradientUnits="userSpaceOnUse" x1="406.3985" y1="769.9783" x2="406.3985" y2="695.5933">
				<stop  offset="0" style="stop-color:#3CA782"/>
				<stop  offset="0.1881" style="stop-color:#35A177"/>
				<stop  offset="0.5222" style="stop-color:#229158"/>
				<stop  offset="0.9607" style="stop-color:#037728"/>
				<stop  offset="1" style="stop-color:#007523"/>
			</linearGradient>
			<path style="fill:url(#SVGID_00000062876279643631131790000006054329947451320997_);" d="M365.3,770h82.2c4,0,7.2-3.3,7.2-7.3
				l-1-60c-0.1-3.9-3.3-7.1-7.2-7.1h-80.2c-3.9,0-7.1,3.1-7.2,7.1l-1,60C358,766.7,361.3,770,365.3,770z"/>
		</g>
	</g>
</g>
<g>
	<path class="st13" d="M162.8,686.5c7.5,0,13.8-2.5,18.7-7.4c4.9-5,7.4-10.9,7.4-17.9c0-6.9-2.5-12.9-7.4-17.8
		c-4.9-4.9-11.2-7.4-18.7-7.4c-7.6,0-13.8,2.5-18.7,7.4c-4.9,4.9-7.4,10.9-7.4,17.8c0,7,2.5,12.9,7.4,17.9
		C149,684.1,155.3,686.5,162.8,686.5z"/>
	<path class="st13" d="M230.7,686.5c7.5,0,13.7-2.5,18.7-7.4c5-5,7.4-10.9,7.4-17.9c0-6.9-2.5-12.9-7.4-17.8
		c-4.9-4.9-11.2-7.4-18.7-7.4c-7.6,0-13.8,2.5-18.7,7.4c-4.9,4.9-7.4,10.9-7.4,17.8c0,7,2.5,12.9,7.4,17.9
		C216.9,684.1,223.1,686.5,230.7,686.5z"/>
	<path class="st13" d="M565.9,686.5c7.5,0,13.7-2.5,18.8-7.4c5-5,7.5-10.9,7.5-17.9c0-6.9-2.5-12.9-7.5-17.8
		c-5.1-4.9-11.3-7.4-18.8-7.4c-7.2,0-13.3,2.5-18.3,7.4c-5,4.9-7.5,10.9-7.5,17.8c0,7,2.5,12.9,7.5,17.9
		C552.6,684.1,558.7,686.5,565.9,686.5z"/>
	<path class="st13" d="M739.2,686.5c7.5,0,13.7-2.5,18.7-7.4c5.1-5,7.6-10.9,7.6-17.9c0-6.9-2.5-12.9-7.6-17.8
		c-5-4.9-11.3-7.4-18.7-7.4c-7.2,0-13.3,2.5-18.3,7.4c-5.1,4.9-7.6,10.9-7.6,17.8c0,7,2.5,12.9,7.6,17.9
		C725.9,684.1,732,686.5,739.2,686.5z"/>
	<path class="st13" d="M765.8,882.8c-14,12.2-33.4,18.9-55.8,19.5h-31.7l-9.7-0.3c-6.4,0.1-12.7-1.1-19-3.4
		c-6.2-2.3-12-7.4-17.3-15.5c-5.2,8.1-11,13.3-17.2,15.6c-6.3,2.3-12.6,3.5-18.9,3.5H454.4c-12.5,0-22.6-3-30.3-8.9
		c-7.6-5.9-13.6-12.5-17.6-19.8c-5,9.6-11.9,16.8-20.9,21.6c-9,4.8-19.5,7.1-31.7,7.1h-76.4c-20.1,0-36.4-16.3-36.4-36.4v-48.4
		c-0.2-7.9-1.5-15.7-4.3-22.8c-2.4-6-5.4-10.5-8.8-13.2c-22.2-17.6-71.2,16.8-88.2,28.1c-16.5,11-29.1,23-38.3,31.6l-0.1,0.1
		c-3.9,3.7-1.6,11,3.4,11l101.8-0.2v13.8c0,20.1-16.3,36.4-36.4,36.4H39.3c-18.3,0-26.2-25.1-16.3-41.2
		c13.7-22.5,32.9-40.9,51.5-58.6c9.7-9.3,24.5-23.2,44.1-36.3c27.5-18.3,91.9-61.2,136.2-26c14.3,11.4,24.6,30.2,29.8,54.6
		c0,0,0,0.2,0.1,0.4c0.3,1.9,1.5,9.9,1.6,16.8l0.2,13.5c0.3,14.5,12.1,26.2,26.7,26.2h17.1c14.8,0,26.8-11.9,27-26.6l0.6-41.3
		c0.1-3.9,3.3-7.1,7.2-7.1h82.8c3.9,0,7.1,3.2,7.2,7.1l0.6,41.4c0.2,14.8,12.3,26.6,27,26.6l127.8-0.1c-2.5-5.2-5-11.1-7.2-17.9
		c-0.5-1.7-1-3.3-1.4-4.9c-0.8-3-1.4-6-1.8-9.1c-0.6-4.6-1.2-8.5-1.7-11.6c-1.6-9.5-2.4-12.3-4.1-15.1c-2.3-4-5.3-6.6-7.4-8.1
		c-4-2.7-12.6-7.8-24.6-8.9c-9.9-0.9-17.8,1.3-22.2,2.8c-9,3.1-18,6.2-27,9.3L501,741c3.5-1.1,8.1-2.6,13.7-4.3
		c5.7-1.7,11.7-3.4,18-5c6.4-1.5,13-3,19.8-4.1c6.8-1.2,13.3-1.7,19.3-1.7c13.9,0,25.6,2.5,35,7.4c9.4,4.9,17.1,11.3,23.1,19.1
		c5.9,7.8,10.4,16.5,13.3,25.9c1.2,3.8,2.4,6.7,3.4,10.7c0.6,2.6,1.1,4.9,1.8,9.6c1.6,9.3,1.7,12.1,3.2,18.4c0.6,2.3,1,3.9,1.3,5
		c0.7,2.4,1.5,4.5,2.2,6.3c0,0,0,0,0,0c0.4,1.1,0.8,2,1.2,2.9c1.8,3.8,3.7,6.9,5.4,9.3c0,0,0,0.1,0,0.1c6,7.1,15,11.6,25,11.6h22.8
		c2.4-0.1,4.8-0.2,6.9-0.5c11.5-2,20.9-10,25-20.6c1.1-3.5,1.8-7.3,2.2-11.5c0.3-3.7,0.3-7.7,0-11.9c-0.4-5.4-1.3-11.1-2.8-17.2
		c-2-8.3-5.1-17.3-9.3-26.6c-4.4-9.6-2-23.5,5.4-30.9l0.2-0.2c11.6-11.6,31.1-8.1,38.3,6.7C803.3,796.9,800.2,852.9,765.8,882.8z"/>
</g>
<g>
	<path class="st0" d="M237.7,973.5h-13.9l-18.5-27.9v27.9h-13.9v-50h13.9l18.5,28.3v-28.3h13.9V973.5z"/>
	<path class="st0" d="M291.5,965.4h-17.7l-2.7,8.2h-14.6l18.2-50h16l18.2,50h-14.7L291.5,965.4z M288,954.7l-5.4-16.2l-5.3,16.2H288
		z"/>
	<path class="st0" d="M357.1,973.5l-15.7-21.9v21.9h-13.9v-50h13.9v21.6l15.5-21.6h16l-18.4,24.3l19.3,25.7H357.1z"/>
	<path class="st0" d="M437.9,923.5v50h-13.9v-20.1h-16.9v20.1h-13.9v-50h13.9v18.8h16.9v-18.8H437.9z"/>
	<path class="st0" d="M474,962.9h15.5v10.6h-29.4v-50H474V962.9z"/>
	<path class="st0" d="M540.7,965.4H523l-2.7,8.2h-14.6l18.2-50h16l18.2,50h-14.7L540.7,965.4z M537.2,954.7l-5.4-16.2l-5.3,16.2
		H537.2z"/>
	<path class="st0" d="M621.5,923.5v50h-13.9v-20.1h-16.9v20.1h-13.9v-50h13.9v18.8h16.9v-18.8H621.5z"/>
</g>
</svg>
