<?xml version="1.0" encoding="utf-8"?>
<!-- Generator: Adobe Illustrator 28.0.0, SVG Export Plug-In . SVG Version: 6.00 Build 0)  -->
<svg version="1.1" id="Layer_1" xmlns="http://www.w3.org/2000/svg" xmlns:xlink="http://www.w3.org/1999/xlink" x="0px" y="0px"
	 viewBox="0 0 200 200" style="enable-background:new 0 0 200 200;" xml:space="preserve">
<style type="text/css">
	.st0{clip-path:url(#SVGID_00000034066382833209486310000007059241575100967319_);}
	.st1{fill:#522B79;}
	.st2{fill:#FFFFFF;}
</style>
<g id="Group_5908" transform="translate(-61 -336.739)">
	<g id="Group_5141" transform="translate(61 336.739)">
		<g>
			<defs>
				<path id="SVGID_1_" d="M15.9,100L15.9,100c0,46.4,37.6,84.1,84.1,84.1c46.4,0,84.1-37.6,84.1-84.1c0-46.4-37.6-84.1-84.1-84.1
					C53.6,15.9,15.9,53.6,15.9,100C15.9,100,15.9,100,15.9,100"/>
			</defs>
			<clipPath id="SVGID_00000090977655692799614600000016716555984842184577_">
				<use xlink:href="#SVGID_1_"  style="overflow:visible;"/>
			</clipPath>
			<g id="Group_5140" style="clip-path:url(#SVGID_00000090977655692799614600000016716555984842184577_);">
				
					<rect id="Rectangle_2307" x="-18.9" y="-18.9" transform="matrix(0.7071 -0.7071 0.7071 0.7071 -41.4302 100.001)" class="st1" width="237.8" height="237.8"/>
			</g>
		</g>
	</g>
	<g id="Group_5907">
		<path id="Path_1662" class="st2" d="M125.8,421.1H142v52.3h-16.2V421.1z M133.9,395.1c5.2,0,9.4,4.2,9.4,9.4
			c0,5.2-4.2,9.4-9.4,9.4c-5.2,0-9.4-4.2-9.4-9.4C124.5,399.3,128.7,395.1,133.9,395.1L133.9,395.1"/>
		<path id="Path_1663" class="st2" d="M152.3,421.1h15.6v7.1h0.2c3.2-5.4,9.1-8.7,15.4-8.5c16.4,0,19.5,10.8,19.5,24.9v28.7h-16.2
			V448c0-6.1-0.1-13.9-8.5-13.9c-8.3,0-9.7,6.6-9.7,13.5v25.9h-16.2L152.3,421.1L152.3,421.1z"/>
	</g>
</g>
</svg>
