<?xml version="1.0" encoding="utf-8"?>
<!-- Generator: Adobe Illustrator 28.0.0, SVG Export Plug-In . SVG Version: 6.00 Build 0)  -->
<svg version="1.1" id="Layer_1" xmlns="http://www.w3.org/2000/svg" xmlns:xlink="http://www.w3.org/1999/xlink" x="0px" y="0px"
	 viewBox="0 0 250 250" style="enable-background:new 0 0 250 250;" xml:space="preserve">
<style type="text/css">
	.st0{clip-path:url(#SVGID_00000090254077242258961940000011808471796066590094_);}
	.st1{clip-path:url(#SVGID_00000111891601037239945730000008933102883215989438_);fill:#486C52;}
	.st2{clip-path:url(#SVGID_00000083778600129110420770000001919547844506778770_);}
	.st3{clip-path:url(#SVGID_00000129172157273788237830000012595006493012354987_);fill:#BF1F49;}
</style>
<g>
	<defs>
		<path id="SVGID_1_" d="M233.77,250H16.23C7.27,250,0,242.73,0,233.77V16.23C0,7.27,7.27,0,16.23,0h217.53
			C242.73,0,250,7.27,250,16.23v217.53C250,242.73,242.73,250,233.77,250z"/>
	</defs>
	<clipPath id="SVGID_00000023991337406506286230000012772555192845322404_">
		<use xlink:href="#SVGID_1_"  style="overflow:visible;"/>
	</clipPath>
	<g id="Bangladesh_2_" style="clip-path:url(#SVGID_00000023991337406506286230000012772555192845322404_);">
		<g>
			<g>
				<g>
					<defs>
						<rect id="SVGID_00000114782251436750012780000010169097910452178873_" x="-72.97" y="-5.31" width="445.28" height="259.74"/>
					</defs>
					<clipPath id="SVGID_00000151544476874984970900000004931318409670118325_">
						<use xlink:href="#SVGID_00000114782251436750012780000010169097910452178873_"  style="overflow:visible;"/>
					</clipPath>
					
						<rect x="-72.97" y="-5.31" style="clip-path:url(#SVGID_00000151544476874984970900000004931318409670118325_);fill:#486C52;" width="445.28" height="259.74"/>
				</g>
				<g>
					<defs>
						<rect id="SVGID_00000067200430949211307050000016584900178941897346_" x="-72.97" y="-5.31" width="445.28" height="259.74"/>
					</defs>
					<clipPath id="SVGID_00000090294628344281088160000013561980209158320033_">
						<use xlink:href="#SVGID_00000067200430949211307050000016584900178941897346_"  style="overflow:visible;"/>
					</clipPath>
					<g style="clip-path:url(#SVGID_00000090294628344281088160000013561980209158320033_);">
						<g>
							<defs>
								
									<rect id="SVGID_00000065044773615173561870000002207722992883387569_" x="-72.97" y="-5.31" width="445.28" height="259.74"/>
							</defs>
							<clipPath id="SVGID_00000047781830083282962680000010627387287254789266_">
								<use xlink:href="#SVGID_00000065044773615173561870000002207722992883387569_"  style="overflow:visible;"/>
							</clipPath>
							<path style="clip-path:url(#SVGID_00000047781830083282962680000010627387287254789266_);fill:#BF1F49;" d="M127.42,35.5
								c49.17,0,89.04,39.87,89.04,89.05c0,49.21-39.87,89.06-89.04,89.06c-49.19,0-89.08-39.85-89.08-89.06
								C38.34,75.37,78.23,35.5,127.42,35.5"/>
						</g>
					</g>
				</g>
			</g>
		</g>
	</g>
</g>
</svg>
