<?xml version="1.0" encoding="utf-8"?>
<!-- Generator: Adobe Illustrator 28.0.0, SVG Export Plug-In . SVG Version: 6.00 Build 0)  -->
<svg version="1.1" id="Layer_1" xmlns="http://www.w3.org/2000/svg" xmlns:xlink="http://www.w3.org/1999/xlink" x="0px" y="0px"
	 viewBox="0 0 250 250" style="enable-background:new 0 0 250 250;" xml:space="preserve">
<style type="text/css">
	.st0{clip-path:url(#SVGID_00000000216034240462831410000002826766057734519712_);}
	.st1{fill:url(#Path_1766_00000147190029266535846550000001727070245649656717_);}
	.st2{fill:url(#Path_1767_00000163034508148810979900000004081389672433618085_);}
</style>
<g id="Group_5820" transform="translate(0 0)">
	<g>
		<defs>
			<rect id="SVGID_1_" x="9.2" y="35.8" width="231.6" height="178.4"/>
		</defs>
		<clipPath id="SVGID_00000121253595003603050040000010424781116026163641_">
			<use xlink:href="#SVGID_1_"  style="overflow:visible;"/>
		</clipPath>
		
			<g id="Group_5815" transform="translate(0 0)" style="clip-path:url(#SVGID_00000121253595003603050040000010424781116026163641_);">
			
				<linearGradient id="Path_1766_00000065788597732739881260000003562163685545027982_" gradientUnits="userSpaceOnUse" x1="2.9793" y1="247.3982" x2="2.9793" y2="240.9763" gradientTransform="matrix(154.1013 0 0 -84.9094 -334.1031 21042.2754)">
				<stop  offset="0" style="stop-color:#F7911E"/>
				<stop  offset="1" style="stop-color:#F28921"/>
			</linearGradient>
			<path id="Path_1766" style="fill:url(#Path_1766_00000065788597732739881260000003562163685545027982_);" d="M125,163.4
				c-32.9,0-65.8,0-98.7,0.1c-2.3,0-3.1-0.6-3.5-2.9c-2.2-15.3-4.6-30.6-7-46c-2.1-14-4.3-27.9-6.5-41.9c-0.6-3.8,0.5-6.9,3.4-8.6
				c2.9-1.8,6.6-1.5,9.2,0.8c13.9,10.4,27.8,20.9,41.7,31.3c7.1,5.3,12.9,4.3,17.9-3.1c11.6-17.3,23.3-34.5,34.6-52
				c2.8-4.9,9.1-6.6,14-3.8c1.6,0.9,2.9,2.2,3.8,3.7c11.3,17.6,23.1,34.8,34.7,52.2c4.8,7.2,10.8,8.2,17.7,3
				c13.9-10.5,27.9-21,41.9-31.4c3.3-2.8,8.1-2.3,10.9,0.9c1.5,1.8,2.1,4.2,1.7,6.5c-0.3,2.1-0.7,4.3-1,6.4
				c-2.9,18.6-5.7,37.1-8.6,55.7c-1.4,9-2.9,17.9-4.1,26.9c-0.3,2-1.1,2.3-2.8,2.3c-3.2-0.1-6.4,0-9.7,0L125,163.4"/>
			
				<linearGradient id="Path_1767_00000144326334676669508830000001389182557015216551_" gradientUnits="userSpaceOnUse" x1="3.1832" y1="235.292" x2="3.1832" y2="228.87" gradientTransform="matrix(135.4296 0 0 -22.548 -306.1252 5485.6548)">
				<stop  offset="0" style="stop-color:#F7911E"/>
				<stop  offset="1" style="stop-color:#F28921"/>
			</linearGradient>
			<path id="Path_1767" style="fill:url(#Path_1767_00000144326334676669508830000001389182557015216551_);" d="M125,180.3
				c33,0,66,0,98.9,0c2.2,0,2.9,0.5,2.8,2.8c-0.2,6.4,0,12.9-0.1,19.3c0,7.5-4.4,11.8-11.9,11.8c-59.9,0-119.8,0-179.8,0
				c-7.4,0-11.8-4.4-11.8-11.9c0-6.4,0.1-12.7-0.1-19.1c-0.1-2.3,0.5-3,2.9-2.9C59.1,180.4,92,180.4,125,180.3"/>
		</g>
	</g>
</g>
</svg>
