<?xml version="1.0" encoding="utf-8"?>
<!-- Generator: Adobe Illustrator 28.0.0, SVG Export Plug-In . SVG Version: 6.00 Build 0)  -->
<svg version="1.1" id="Layer_1" xmlns="http://www.w3.org/2000/svg" xmlns:xlink="http://www.w3.org/1999/xlink" x="0px" y="0px"
	 viewBox="0 0 250 250" style="enable-background:new 0 0 250 250;" xml:space="preserve">
<style type="text/css">
	.st0{clip-path:url(#SVGID_00000094583933076949486730000017159323819293917068_);}
	.st1{fill:#FFFFFF;}
	.st2{fill:#B22435;}
	.st3{fill:#3D3C6F;}
</style>
<g>
	<defs>
		<path id="SVGID_1_" d="M233.77,250H16.23C7.27,250,0,242.73,0,233.77V16.23C0,7.27,7.27,0,16.23,0h217.53
			C242.73,0,250,7.27,250,16.23v217.53C250,242.73,242.73,250,233.77,250z"/>
	</defs>
	<clipPath id="SVGID_00000098190551889153665080000013341957259783964574_">
		<use xlink:href="#SVGID_1_"  style="overflow:visible;"/>
	</clipPath>
	<g style="clip-path:url(#SVGID_00000098190551889153665080000013341957259783964574_);">
		<rect x="-7.68" y="1.05" class="st1" width="470" height="247.9"/>
		<rect x="-7.68" y="0.12" class="st2" width="469.61" height="19.61"/>
		<rect x="-7.68" y="38.48" class="st2" width="469.61" height="19.61"/>
		<rect x="-7.68" y="76.84" class="st2" width="469.61" height="19.61"/>
		<rect x="-7.68" y="115.2" class="st2" width="469.61" height="19.61"/>
		<rect x="-7.68" y="153.55" class="st2" width="469.61" height="19.61"/>
		<rect x="-7.68" y="191.91" class="st2" width="469.61" height="19.61"/>
		<rect x="-7.68" y="230.27" class="st2" width="469.61" height="19.61"/>
		<rect x="-7.69" y="0.12" class="st3" width="187.56" height="134.69"/>
		<g>
			<polygon class="st1" points="8.26,5.28 10.02,10.78 15.7,10.78 11.1,14.17 12.86,19.67 8.26,16.27 3.67,19.67 5.42,14.17 
				0.83,10.78 6.51,10.78 			"/>
			<polygon class="st1" points="23.72,19.1 25.47,24.6 31.15,24.6 26.56,27.99 28.32,33.49 23.72,30.09 19.13,33.49 20.88,27.99 
				16.28,24.6 21.96,24.6 			"/>
			<polygon class="st1" points="23.72,46.1 25.47,51.6 31.15,51.6 26.56,55 28.32,60.49 23.72,57.1 19.13,60.49 20.88,55 
				16.28,51.6 21.96,51.6 			"/>
			<polygon class="st1" points="23.72,73.1 25.47,78.6 31.15,78.6 26.56,82 28.32,87.5 23.72,84.1 19.13,87.5 20.88,82 16.28,78.6 
				21.96,78.6 			"/>
			<polygon class="st1" points="23.72,100.11 25.47,105.6 31.15,105.6 26.56,109 28.32,114.5 23.72,111.1 19.13,114.5 20.88,109 
				16.28,105.6 21.96,105.6 			"/>
			<polygon class="st1" points="55.05,19.1 56.81,24.6 62.49,24.6 57.9,27.99 59.65,33.49 55.05,30.09 50.46,33.49 52.22,27.99 
				47.62,24.6 53.3,24.6 			"/>
			<polygon class="st1" points="55.05,46.1 56.81,51.6 62.49,51.6 57.9,55 59.65,60.49 55.05,57.1 50.46,60.49 52.22,55 47.62,51.6 
				53.3,51.6 			"/>
			<polygon class="st1" points="55.05,73.1 56.81,78.6 62.49,78.6 57.9,82 59.65,87.5 55.05,84.1 50.46,87.5 52.22,82 47.62,78.6 
				53.3,78.6 			"/>
			<polygon class="st1" points="55.05,100.11 56.81,105.6 62.49,105.6 57.9,109 59.65,114.5 55.05,111.1 50.46,114.5 52.22,109 
				47.62,105.6 53.3,105.6 			"/>
			<polygon class="st1" points="86.39,19.1 88.15,24.6 93.82,24.6 89.23,27.99 90.98,33.49 86.39,30.09 81.79,33.49 83.55,27.99 
				78.95,24.6 84.63,24.6 			"/>
			<polygon class="st1" points="86.39,46.1 88.15,51.6 93.82,51.6 89.23,55 90.98,60.49 86.39,57.1 81.79,60.49 83.55,55 
				78.95,51.6 84.63,51.6 			"/>
			<polygon class="st1" points="86.39,73.1 88.15,78.6 93.82,78.6 89.23,82 90.98,87.5 86.39,84.1 81.79,87.5 83.55,82 78.95,78.6 
				84.63,78.6 			"/>
			<polygon class="st1" points="86.39,100.11 88.15,105.6 93.82,105.6 89.23,109 90.98,114.5 86.39,111.1 81.79,114.5 83.55,109 
				78.95,105.6 84.63,105.6 			"/>
			<polygon class="st1" points="117.72,19.1 119.48,24.6 125.16,24.6 120.56,27.99 122.32,33.49 117.72,30.09 113.13,33.49 
				114.88,27.99 110.29,24.6 115.97,24.6 			"/>
			<polygon class="st1" points="117.72,46.1 119.48,51.6 125.16,51.6 120.56,55 122.32,60.49 117.72,57.1 113.13,60.49 114.88,55 
				110.29,51.6 115.97,51.6 			"/>
			<polygon class="st1" points="117.72,73.1 119.48,78.6 125.16,78.6 120.56,82 122.32,87.5 117.72,84.1 113.13,87.5 114.88,82 
				110.29,78.6 115.97,78.6 			"/>
			<polygon class="st1" points="117.72,100.11 119.48,105.6 125.16,105.6 120.56,109 122.32,114.5 117.72,111.1 113.13,114.5 
				114.88,109 110.29,105.6 115.97,105.6 			"/>
			<polygon class="st1" points="149.06,19.1 150.81,24.6 156.49,24.6 151.9,27.99 153.65,33.49 149.06,30.09 144.46,33.49 
				146.22,27.99 141.63,24.6 147.3,24.6 			"/>
			<polygon class="st1" points="149.06,46.1 150.81,51.6 156.49,51.6 151.9,55 153.65,60.49 149.06,57.1 144.46,60.49 146.22,55 
				141.63,51.6 147.3,51.6 			"/>
			<polygon class="st1" points="149.06,73.1 150.81,78.6 156.49,78.6 151.9,82 153.65,87.5 149.06,84.1 144.46,87.5 146.22,82 
				141.63,78.6 147.3,78.6 			"/>
			<polygon class="st1" points="149.06,100.11 150.81,105.6 156.49,105.6 151.9,109 153.65,114.5 149.06,111.1 144.46,114.5 
				146.22,109 141.63,105.6 147.3,105.6 			"/>
			<polygon class="st1" points="8.26,32.28 10.02,37.78 15.7,37.78 11.1,41.17 12.86,46.67 8.26,43.28 3.67,46.67 5.42,41.17 
				0.83,37.78 6.51,37.78 			"/>
			<polygon class="st1" points="8.26,59.28 10.02,64.78 15.7,64.78 11.1,68.18 12.86,73.68 8.26,70.28 3.67,73.68 5.42,68.18 
				0.83,64.78 6.51,64.78 			"/>
			<polygon class="st1" points="8.26,86.29 10.02,91.78 15.7,91.78 11.1,95.18 12.86,100.68 8.26,97.28 3.67,100.68 5.42,95.18 
				0.83,91.78 6.51,91.78 			"/>
			<polygon class="st1" points="8.26,113.29 10.02,118.79 15.7,118.79 11.1,122.19 12.86,127.68 8.26,124.29 3.67,127.68 
				5.42,122.19 0.83,118.79 6.51,118.79 			"/>
			<polygon class="st1" points="39.18,5.28 40.93,10.78 46.61,10.78 42.02,14.17 43.77,19.67 39.18,16.27 34.58,19.67 36.34,14.17 
				31.74,10.78 37.42,10.78 			"/>
			<polygon class="st1" points="39.18,32.28 40.93,37.78 46.61,37.78 42.02,41.17 43.77,46.67 39.18,43.28 34.58,46.67 36.34,41.17 
				31.74,37.78 37.42,37.78 			"/>
			<polygon class="st1" points="39.18,59.28 40.93,64.78 46.61,64.78 42.02,68.18 43.77,73.68 39.18,70.28 34.58,73.68 36.34,68.18 
				31.74,64.78 37.42,64.78 			"/>
			<polygon class="st1" points="39.18,86.29 40.93,91.78 46.61,91.78 42.02,95.18 43.77,100.68 39.18,97.28 34.58,100.68 
				36.34,95.18 31.74,91.78 37.42,91.78 			"/>
			<polygon class="st1" points="39.18,113.29 40.93,118.79 46.61,118.79 42.02,122.19 43.77,127.68 39.18,124.29 34.58,127.68 
				36.34,122.19 31.74,118.79 37.42,118.79 			"/>
			<polygon class="st1" points="70.93,5.28 72.69,10.78 78.37,10.78 73.77,14.17 75.53,19.67 70.93,16.27 66.34,19.67 68.09,14.17 
				63.5,10.78 69.18,10.78 			"/>
			<polygon class="st1" points="70.93,32.28 72.69,37.78 78.37,37.78 73.77,41.17 75.53,46.67 70.93,43.28 66.34,46.67 68.09,41.17 
				63.5,37.78 69.18,37.78 			"/>
			<polygon class="st1" points="70.93,59.28 72.69,64.78 78.37,64.78 73.77,68.18 75.53,73.68 70.93,70.28 66.34,73.68 68.09,68.18 
				63.5,64.78 69.18,64.78 			"/>
			<polygon class="st1" points="70.93,86.29 72.69,91.78 78.37,91.78 73.77,95.18 75.53,100.68 70.93,97.28 66.34,100.68 
				68.09,95.18 63.5,91.78 69.18,91.78 			"/>
			<polygon class="st1" points="70.93,113.29 72.69,118.79 78.37,118.79 73.77,122.19 75.53,127.68 70.93,124.29 66.34,127.68 
				68.09,122.19 63.5,118.79 69.18,118.79 			"/>
			<polygon class="st1" points="102.06,5.28 103.81,10.78 109.49,10.78 104.9,14.17 106.65,19.67 102.06,16.27 97.46,19.67 
				99.22,14.17 94.62,10.78 100.3,10.78 			"/>
			<polygon class="st1" points="102.06,32.28 103.81,37.78 109.49,37.78 104.9,41.17 106.65,46.67 102.06,43.28 97.46,46.67 
				99.22,41.17 94.62,37.78 100.3,37.78 			"/>
			<polygon class="st1" points="102.06,59.28 103.81,64.78 109.49,64.78 104.9,68.18 106.65,73.68 102.06,70.28 97.46,73.68 
				99.22,68.18 94.62,64.78 100.3,64.78 			"/>
			<polygon class="st1" points="102.06,86.29 103.81,91.78 109.49,91.78 104.9,95.18 106.65,100.68 102.06,97.28 97.46,100.68 
				99.22,95.18 94.62,91.78 100.3,91.78 			"/>
			<polygon class="st1" points="102.06,113.29 103.81,118.79 109.49,118.79 104.9,122.19 106.65,127.68 102.06,124.29 97.46,127.68 
				99.22,122.19 94.62,118.79 100.3,118.79 			"/>
			<polygon class="st1" points="133.18,5.28 134.94,10.78 140.62,10.78 136.02,14.17 137.78,19.67 133.18,16.27 128.59,19.67 
				130.34,14.17 125.75,10.78 131.43,10.78 			"/>
			<polygon class="st1" points="133.18,32.28 134.94,37.78 140.62,37.78 136.02,41.17 137.78,46.67 133.18,43.28 128.59,46.67 
				130.34,41.17 125.75,37.78 131.43,37.78 			"/>
			<polygon class="st1" points="133.18,59.28 134.94,64.78 140.62,64.78 136.02,68.18 137.78,73.68 133.18,70.28 128.59,73.68 
				130.34,68.18 125.75,64.78 131.43,64.78 			"/>
			<polygon class="st1" points="133.18,86.29 134.94,91.78 140.62,91.78 136.02,95.18 137.78,100.68 133.18,97.28 128.59,100.68 
				130.34,95.18 125.75,91.78 131.43,91.78 			"/>
			<polygon class="st1" points="133.18,113.29 134.94,118.79 140.62,118.79 136.02,122.19 137.78,127.68 133.18,124.29 
				128.59,127.68 130.34,122.19 125.75,118.79 131.43,118.79 			"/>
			<polygon class="st1" points="164.93,5.28 166.69,10.78 172.37,10.78 167.78,14.17 169.53,19.67 164.93,16.27 160.34,19.67 
				162.1,14.17 157.5,10.78 163.18,10.78 			"/>
			<polygon class="st1" points="164.93,32.28 166.69,37.78 172.37,37.78 167.78,41.17 169.53,46.67 164.93,43.28 160.34,46.67 
				162.1,41.17 157.5,37.78 163.18,37.78 			"/>
			<polygon class="st1" points="164.93,59.28 166.69,64.78 172.37,64.78 167.78,68.18 169.53,73.68 164.93,70.28 160.34,73.68 
				162.1,68.18 157.5,64.78 163.18,64.78 			"/>
			<polygon class="st1" points="164.93,86.29 166.69,91.78 172.37,91.78 167.78,95.18 169.53,100.68 164.93,97.28 160.34,100.68 
				162.1,95.18 157.5,91.78 163.18,91.78 			"/>
			<polygon class="st1" points="164.93,113.29 166.69,118.79 172.37,118.79 167.78,122.19 169.53,127.68 164.93,124.29 
				160.34,127.68 162.1,122.19 157.5,118.79 163.18,118.79 			"/>
		</g>
	</g>
</g>
</svg>
